<?xml version="1.0" encoding="UTF-8" standalone="no"?>
<!-- Created with Inkscape (http://www.inkscape.org/) -->

<svg
   width="99.998062mm"
   height="99.996109mm"
   viewBox="0 0 99.998059 99.996111"
   version="1.1"
   id="svg1"
   inkscape:version="1.3.2 (091e20ef0f, 2023-11-25, custom)"
   sodipodi:docname="huenicorn.svg"
   inkscape:export-filename="huenicorn.png"
   inkscape:export-xdpi="96"
   inkscape:export-ydpi="96"
   xmlns:inkscape="http://www.inkscape.org/namespaces/inkscape"
   xmlns:sodipodi="http://sodipodi.sourceforge.net/DTD/sodipodi-0.dtd"
   xmlns:xlink="http://www.w3.org/1999/xlink"
   xmlns="http://www.w3.org/2000/svg"
   xmlns:svg="http://www.w3.org/2000/svg">
  <sodipodi:namedview
     id="namedview1"
     pagecolor="#ffffff"
     bordercolor="#000000"
     borderopacity="0.25"
     inkscape:showpageshadow="2"
     inkscape:pageopacity="0.0"
     inkscape:pagecheckerboard="0"
     inkscape:deskcolor="#d1d1d1"
     inkscape:document-units="mm"
     inkscape:zoom="0.65952826"
     inkscape:cx="17.436705"
     inkscape:cy="426.06211"
     inkscape:window-width="1955"
     inkscape:window-height="1380"
     inkscape:window-x="0"
     inkscape:window-y="0"
     inkscape:window-maximized="0"
     inkscape:current-layer="g48"
     showgrid="false">
    <inkscape:grid
       id="grid1"
       units="px"
       originx="-79.259546"
       originy="-9.4000006"
       spacingx="0.26458333"
       spacingy="0.26458334"
       empcolor="#0099e5"
       empopacity="0.30196078"
       color="#0099e5"
       opacity="0.14901961"
       empspacing="5"
       dotted="false"
       gridanglex="30"
       gridanglez="30"
       visible="false" />
    <inkscape:page
       x="0"
       y="0"
       width="99.998055"
       height="99.996109"
       id="page7"
       margin="0"
       bleed="0"
       inkscape:export-filename="huenicorn-square.svg"
       inkscape:export-xdpi="96"
       inkscape:export-ydpi="96" />
  </sodipodi:namedview>
  <defs
     id="defs1">
    <linearGradient
       id="linearGradient71"
       inkscape:collect="always">
      <stop
         style="stop-color:#000000;stop-opacity:1;"
         offset="0"
         id="stop73" />
      <stop
         style="stop-color:#000000;stop-opacity:0;"
         offset="1"
         id="stop74" />
    </linearGradient>
    <linearGradient
       id="linearGradient31"
       inkscape:collect="always">
      <stop
         style="stop-color:#000000;stop-opacity:1;"
         offset="0"
         id="stop31" />
      <stop
         style="stop-color:#000000;stop-opacity:0;"
         offset="1"
         id="stop34" />
    </linearGradient>
    <linearGradient
       id="linearGradient29"
       inkscape:collect="always">
      <stop
         style="stop-color:#000000;stop-opacity:1;"
         offset="0"
         id="stop29" />
      <stop
         style="stop-color:#000000;stop-opacity:0;"
         offset="1"
         id="stop30" />
    </linearGradient>
    <linearGradient
       id="linearGradient80"
       inkscape:collect="always">
      <stop
         style="stop-color:#ffffff;stop-opacity:0;"
         offset="0"
         id="stop81" />
      <stop
         style="stop-color:#ffffff;stop-opacity:0;"
         offset="1"
         id="stop82" />
    </linearGradient>
    <linearGradient
       id="linearGradient79"
       inkscape:collect="always">
      <stop
         style="stop-color:#ffffff;stop-opacity:1;"
         offset="0"
         id="stop79" />
      <stop
         style="stop-color:#ffffff;stop-opacity:0;"
         offset="1"
         id="stop80" />
    </linearGradient>
    <linearGradient
       id="linearGradient76"
       inkscape:collect="always">
      <stop
         style="stop-color:#ffffff;stop-opacity:1;"
         offset="0"
         id="stop78" />
      <stop
         style="stop-color:#5118c2;stop-opacity:1;"
         offset="1"
         id="stop77" />
    </linearGradient>
    <linearGradient
       id="linearGradient72"
       inkscape:collect="always">
      <stop
         style="stop-color:#0f00ff;stop-opacity:1;"
         offset="0"
         id="stop85" />
      <stop
         style="stop-color:#51ff00;stop-opacity:1;"
         offset="0.25648415"
         id="stop69" />
      <stop
         style="stop-color:#e5ff00;stop-opacity:1;"
         offset="0.46387699"
         id="stop70" />
      <stop
         style="stop-color:#ff6700;stop-opacity:1;"
         offset="0.6474849"
         id="stop71" />
      <stop
         style="stop-color:#5017c2;stop-opacity:1;"
         offset="1"
         id="stop72" />
    </linearGradient>
    <linearGradient
       id="linearGradient68"
       inkscape:collect="always">
      <stop
         style="stop-color:#5117c1;stop-opacity:1;"
         offset="0"
         id="stop67" />
      <stop
         style="stop-color:#ffffff;stop-opacity:1;"
         offset="1"
         id="stop68" />
    </linearGradient>
    <linearGradient
       id="linearGradient32"
       inkscape:collect="always">
      <stop
         style="stop-color:#ffffff;stop-opacity:1;"
         offset="0"
         id="stop33" />
      <stop
         style="stop-color:#5117c1;stop-opacity:1;"
         offset="1"
         id="stop32" />
    </linearGradient>
    <linearGradient
       id="linearGradient12"
       inkscape:swatch="gradient">
      <stop
         style="stop-color:#8d17c1;stop-opacity:1;"
         offset="0"
         id="stop12" />
      <stop
         style="stop-color:#8d17c1;stop-opacity:0;"
         offset="1"
         id="stop13" />
    </linearGradient>
    <clipPath
       clipPathUnits="userSpaceOnUse"
       id="clipPath25">
      <rect
         style="fill:#ff0000;stroke:none;stroke-width:3;stroke-linecap:square;stroke-linejoin:miter;paint-order:stroke markers fill;stop-color:#000000"
         id="rect25-8"
         width="78"
         height="45.033199"
         x="763.61322"
         y="452.82422" />
    </clipPath>
    <linearGradient
       id="swatch9">
      <stop
         style="stop-color:#ff0000;stop-opacity:1;"
         offset="0"
         id="stop10" />
    </linearGradient>
    <linearGradient
       inkscape:collect="always"
       xlink:href="#linearGradient32"
       id="linearGradient35"
       gradientUnits="userSpaceOnUse"
       gradientTransform="rotate(8.0476539,136.03077,132.68291)"
       x1="187.56837"
       y1="194.45236"
       x2="146.46986"
       y2="120.78633" />
    <linearGradient
       inkscape:collect="always"
       xlink:href="#linearGradient68"
       id="linearGradient36"
       gradientUnits="userSpaceOnUse"
       x1="40.106956"
       y1="6.6279764"
       x2="190.6181"
       y2="115.85823" />
    <linearGradient
       inkscape:collect="always"
       xlink:href="#linearGradient72"
       id="linearGradient37"
       gradientUnits="userSpaceOnUse"
       gradientTransform="rotate(7.3667678,92.987102,87.341964)"
       x1="20.663397"
       y1="35.507965"
       x2="49.867676"
       y2="49.603386" />
    <linearGradient
       inkscape:collect="always"
       xlink:href="#linearGradient76"
       id="linearGradient38"
       gradientUnits="userSpaceOnUse"
       x1="26.273703"
       y1="195.93607"
       x2="150.92778"
       y2="35.620163" />
    <linearGradient
       inkscape:collect="always"
       xlink:href="#linearGradient71"
       id="linearGradient40"
       gradientUnits="userSpaceOnUse"
       x1="71.907471"
       y1="173.53757"
       x2="112.16912"
       y2="122.78528" />
    <linearGradient
       inkscape:collect="always"
       xlink:href="#linearGradient31"
       id="linearGradient41"
       gradientUnits="userSpaceOnUse"
       x1="66.7649"
       y1="78.078133"
       x2="89.952171"
       y2="96.391548" />
    <radialGradient
       inkscape:collect="always"
       xlink:href="#linearGradient79"
       id="radialGradient41"
       gradientUnits="userSpaceOnUse"
       gradientTransform="matrix(0.19137961,0.20571408,-0.46036291,0.42828407,70.093803,15.568563)"
       cx="54.64563"
       cy="49.082573"
       fx="54.64563"
       fy="49.082573"
       r="12.056826" />
    <linearGradient
       inkscape:collect="always"
       xlink:href="#linearGradient80"
       id="linearGradient42"
       gradientUnits="userSpaceOnUse"
       x1="57.956066"
       y1="47.831223"
       x2="60.263496"
       y2="50.311481" />
    <linearGradient
       inkscape:collect="always"
       xlink:href="#linearGradient29"
       id="linearGradient43"
       gradientUnits="userSpaceOnUse"
       x1="58.723656"
       y1="53.328949"
       x2="76.048775"
       y2="57.150188" />
  </defs>
  <g
     inkscape:label="Huenicorn"
     inkscape:groupmode="layer"
     id="g48"
     style="display:inline;fill:#181818;fill-opacity:1"
     transform="matrix(-1,0,0,1,127.62295,-26.553679)"
     sodipodi:insensitive="true">
    <path
       id="path1-2"
       style="display:inline;fill:url(#linearGradient35);fill-opacity:1;stroke-width:0.264583"
       inkscape:label="Tail"
       d="m 151.82544,136.02993 c 0.18438,2.0446 -0.0592,3.37413 -0.0592,3.37413 l -1.05128,4.03595 3.82008,5.16461 c 0,0 5.40671,5.79324 7.31576,9.19458 5.46337,9.7342 11.42983,31.35452 11.42983,31.35452 0,0 6.38978,-18.09272 5.95583,-27.43097 -0.22151,-4.76735 -1.48785,-9.79318 -4.32743,-13.68741 -2.82308,-3.87163 -7.43935,-6.2887 -11.78281,-8.45153 -3.40828,-1.69717 -10.47537,-3.3621 -11.30122,-3.55389 z"
       sodipodi:nodetypes="ccccscssscc" />
    <path
       id="path48"
       style="display:inline;fill:url(#linearGradient36);fill-opacity:1;stroke-width:0.265;stroke-dasharray:none"
       inkscape:label="Hair"
       d="m 80.378441,32.398136 c -3.613049,-0.589583 -7.291472,-0.84532 -10.952188,-0.815568 -3.265624,0.02654 -9.757027,0.886251 -9.757027,0.886251 l -0.362768,4.045231 4.438488,2.969845 c 0,0 14.58787,3.206404 19.924596,4.620447 4.754999,1.259906 9.613903,3.751437 13.491569,6.778167 10.390079,8.110023 26.301639,28.281134 26.301639,28.281134 4.16676,35.286327 3.25624,6.567224 3.25624,6.567224 0,0 -0.182,-5.009781 -4.71547,-17.928231 C 117.21798,54.165851 113.01913,50.228765 109.24151,46.5383 104.73884,42.139519 98.482966,38.153484 92.304272,35.432921 88.550112,33.779913 84.426863,33.058764 80.378441,32.398136 Z"
       sodipodi:nodetypes="aacccssccssaa" />
    <path
       id="path1-6"
       style="display:inline;fill:url(#linearGradient37);fill-opacity:1;stroke:#000000;stroke-width:0.264583;stroke-opacity:0"
       inkscape:label="Horn"
       d="m 27.705295,26.669658 25.91471,19.818745 3.641514,-3.600724 z"
       sodipodi:nodetypes="cccc" />
    <path
       id="path2"
       style="display:inline;fill:url(#linearGradient38);fill-opacity:1;stroke-width:0.264583"
       d="m 141.68359,158.33458 c -2.24199,4.54483 3.10527,13.2826 3.10527,13.2826 l 6.45462,13.30976 -8.70184,19.71625 0.65859,6.9039 -10.30171,5.7e-4 0.10363,-7.02555 11.16362,-18.81547 -7.89897,-7.90032 c 0,0 -11.28213,-10.17304 -13.73408,-17.34919 -2.22088,-6.49989 -0.82754,-13.95184 -2.79415,-20.54475 -2.85039,-9.55568 -6.11815,-19.78209 -11.6757,-26.26565 -6.03333,-7.03862 -22.526159,-16.311382 -22.526159,-16.311382 0,0 -6.5e-4,-0.01293 0.854863,8.550822 C 72.362805,101.8516 60.189625,92.530488 60.189625,92.530488 l 2.027791,3.041103 4.658113,5.482509 -10.344783,0.82436 -4.081592,-5.348184 c 0,0 -0.436393,-5.201461 0.825566,-7.300168 C 54.399942,87.358803 58.6788,85.5278 58.6788,85.5278 l 14.148097,5.163594 c 0,0 -2.961752,-5.26461 -2.929045,-8.151764 0.0434,-3.830656 4.130256,-10.724889 4.130256,-10.724889 l -6.349689,-9.157483 c 0,0 -2.92539,-0.832133 -12.743663,2.721668 0,0 -0.04195,0.04348 -19.373782,7.012494 -2.618227,0.943856 -1.774418,-6.767043 -1.06705,-7.444897 4.503671,-4.315762 23.787408,-23.119566 23.787408,-23.119566 l -2.291283,-7.532051 7.754752,5.189222 c 0,0 10.727721,-0.360165 22.671737,4.963623 6.299095,2.807685 12.381513,6.94045 15.895082,10.383168 10.90513,10.685239 15.35309,15.284281 21.15112,24.332971 3.55985,5.555674 5.32776,12.075013 8.14649,18.04098 3.31434,7.01494 9.84061,12.10318 14.9313,19.41062 2.77832,3.98815 5.77217,14.0859 5.37521,21.78118 -0.39696,7.69529 -8.70229,16.83664 -10.23215,19.93791 z"
       sodipodi:nodetypes="sccccccccssscccccccsccsccssscccssasscs"
       inkscape:label="Body" />
    <path
       id="path70"
       style="display:inline;fill:url(#linearGradient40);stroke-width:0.264583"
       inkscape:label="LegShadow"
       d="m 111.45315,111.56632 3.53105,14.23789 c 1.83579,4.51317 3.34711,9.39095 4.75423,14.10818 0.6727,2.25518 0.91654,4.61947 1.0821,7.00319 -0.26651,-4.72847 -0.17673,-12.64346 2.9931,-15.99179 13.15997,-13.901 4.90048,-5.22345 4.90048,-5.22345 z m 9.45885,36.7223 c 0.0358,0.64769 0.0962,1.28955 0.12867,1.93787 l 0.10904,0.44028 c 0,0 -0.12366,-0.92208 -0.23771,-2.37815 z" />
    <path
       style="display:inline;fill:url(#linearGradient41);stroke-width:0.264999"
       d="M 85.534125,97.343094 84.495173,88.45067 89.994544,99.976334 Z"
       id="path13"
       inkscape:label="ArmShadow"
       sodipodi:nodetypes="cccc" />
    <path
       style="fill:#ffffff;fill-opacity:1;stroke:#000000;stroke-width:0.302725;stroke-dasharray:none;stroke-opacity:0"
       d="m 53.821964,50.943641 c 0,0 2.878093,-0.549042 3.802334,-0.868102 1.072703,-0.370312 1.962467,-1.006997 2.645541,-1.913216 0.697956,-0.925962 1.388552,-3.949732 1.388552,-3.949732 0,0 -2.500211,0.766388 -3.34179,1.183607 -1.072554,0.531725 -2.078069,1.404728 -2.750183,2.309638 -0.561074,0.75541 -1.744454,3.237805 -1.744454,3.237805 z"
       id="path18"
       inkscape:label="Eye"
       sodipodi:nodetypes="csscssc" />
    <rect
       style="display:inline;fill:url(#radialGradient41);stroke:url(#linearGradient42);stroke-width:0.264999;stroke-dasharray:none;stroke-opacity:0"
       id="rect78"
       width="20.58552"
       height="25.862976"
       x="47.129463"
       y="33.312397"
       inkscape:label="eyeGlare"
       ry="0.18927498"
       sodipodi:insensitive="true" />
    <path
       style="display:inline;fill:url(#linearGradient43);stroke:none;stroke-width:0.264999"
       d="m 74.056145,71.830116 -6.377758,-9.174649 c 0,0 1.834834,0.527506 4.694982,-0.105829 2.754802,-0.610008 4.14048,-9.465555 4.14048,-9.465555 z"
       id="path25"
       inkscape:label="NeckShadow"
       sodipodi:nodetypes="ccscc" />
  </g>
</svg>
